<?xml version="1.0" encoding="UTF-8"?>
<svg width="18px" height="18px" viewBox="0 0 18 18" version="1.1" xmlns="http://www.w3.org/2000/svg" xmlns:xlink="http://www.w3.org/1999/xlink">
    <!-- Generator: Sketch 48.2 (47327) - http://www.bohemiancoding.com/sketch -->
    <title>Page 1</title>
    <desc>Created with Sketch.</desc>
    <defs>
        <polygon id="path-1" points="0 0 18 0 18 18 0 18"></polygon>
    </defs>
    <g id="Desktop-HD" stroke="none" stroke-width="1" fill="none" fill-rule="evenodd" transform="translate(-1082.000000, -186.000000)" opacity="0.800000012">
        <g id="Page-1" transform="translate(1082.000000, 186.000000)">
            <mask id="mask-2" fill="white">
                <use xlink:href="#path-1"></use>
            </mask>
            <g id="Clip-2"></g>
            <path d="M9,5.91295916 C10.7102229,5.91295916 12.0809085,7.28559792 12.0809085,9 C12.0809085,10.7144021 10.7102229,12.0870408 9,12.0870408 C7.28977712,12.0870408 5.92048445,10.7144021 5.92048445,9 C5.92048445,7.28559792 7.28977712,5.91295916 9,5.91295916 Z M9,4.36542415 C6.45573441,4.36542415 4.37707011,6.44951709 4.37707011,9 C4.37707011,11.5504829 6.45573441,13.6345759 9,13.6345759 C11.5442656,13.6345759 13.6243229,11.5504829 13.6243229,9 C13.6243229,6.44951709 11.5442656,4.36542415 9,4.36542415 Z M13.8308311,3.09472092 C13.2346386,3.09472092 12.7512769,3.5789147 12.7512769,4.17691323 C12.7512769,4.77456266 13.2346386,5.25875645 13.8308311,5.25875645 C14.4270237,5.25875645 14.9100371,4.77456266 14.9100371,4.17691323 C14.9100371,3.5789147 14.4270237,3.09472092 13.8308311,3.09472092 Z M5.2100681,1.54753501 L12.7899319,1.54753501 C14.8351648,1.54753501 16.4576304,3.17396532 16.4576304,5.22384702 L16.4576304,12.7775494 C16.4576304,14.8274311 14.8351648,16.452465 12.7899319,16.452465 L5.2100681,16.452465 C3.16518341,16.452465 1.54376258,14.8274311 1.54376258,12.7775494 L1.54376258,5.22384702 C1.54376258,3.17396532 3.16518341,1.54753501 5.2100681,1.54753501 Z M5.2100681,0 C2.33671258,0 0,2.34347 0,5.22384702 L0,12.7775494 C0,15.6575773 2.33671258,18 5.2100681,18 L12.7899319,18 C15.6632874,18 18,15.6575773 18,12.7775494 L18,5.22384702 C18,2.34347 15.6632874,0 12.7899319,0 L5.2100681,0 Z" id="Fill-1" fill="#FFFFFF" mask="url(#mask-2)"></path>
        </g>
    </g>
</svg>